<svg viewBox="0 0 1024 1024" version="1.1" xmlns="http://www.w3.org/2000/svg" p-id="3852"><path d="M613.610667 56.661333c14.570667-18.453333 21.696-15.082667 15.829333 8l-74.048 290.88 243.413333 73.173334c11.178667 3.349333 14.549333 13.653333 7.488 23.04L418.773333 967.893333c-14.186667 18.901333-20.906667 15.786667-14.933333-7.146666l78.378667-301.568-281.194667-49.429334c-11.605333-2.048-15.189333-11.072-7.744-20.522666L613.610667 56.661333z m207.786666 878.976l-16.448-44.010666h-140.245333l-16.469333 44.970666c-6.421333 17.536-11.925333 29.376-16.469334 35.52-4.544 6.144-12.010667 9.216-22.357333 9.216-8.789333 0-16.554667-3.264-23.296-9.813333-6.741333-6.528-10.112-13.952-10.112-22.250667 0-4.778667 0.789333-9.728 2.346667-14.826666 1.578667-5.12 4.16-12.202667 7.765333-21.290667L674.346667 685.44l9.066666-23.573333c3.52-9.173333 7.296-16.789333 11.306667-22.826667 3.989333-6.08 9.237333-10.986667 15.744-14.72 6.506667-3.754667 14.549333-5.632 24.106667-5.632 9.749333 0 17.856 1.877333 24.362666 5.632 6.528 3.733333 11.776 8.554667 15.786667 14.464 3.989333 5.909333 7.36 12.245333 10.112 19.008 2.730667 6.784 6.229333 15.829333 10.453333 27.157333l90.133334 226.304c7.04 17.237333 10.581333 29.76 10.581333 37.546667 0 8.149333-3.328 15.616-10.005333 22.4-6.656 6.762667-14.72 10.154667-24.106667 10.154667-5.504 0-10.197333-1.002667-14.122667-2.986667a29.013333 29.013333 0 0 1-9.877333-8.128c-2.666667-3.434667-5.546667-8.704-8.597333-15.786667a933.546667 933.546667 0 0 1-7.893334-18.773333z m-138.346666-97.365333h103.061333l-51.989333-144.725333-51.072 144.725333z" fill="#3D3D3D" p-id="3853"></path></svg>