<svg viewBox="0 0 1024 1024" version="1.1" xmlns="http://www.w3.org/2000/svg" p-id="2655"><path d="M1014.9 935.6l-32.3-32.4c26.1-35.7 41.5-79.7 41.5-127.3 0-88-52.6-163.6-128-197.3V243c0-6.1-0.5-12.1-1.6-18C874.9 117.5 682.5 33 448 33S21.1 117.4 1.6 225c-1 5.8-1.6 11.7-1.6 17.7V721c2.3 115.1 202 208 448 208 67.9 0 132.3-7.1 190-19.8 39.5 50.4 101 82.8 170 82.8 48.6 0 93.5-16.1 129.6-43.2l32.1 32.1c6.3 6.3 14.4 9.4 22.6 9.4s16.4-3.1 22.6-9.4c12.5-12.5 12.5-32.8 0-45.3zM64 351.2c78.4 61 221 101.8 384 101.8s305.6-40.8 384-101.8v77.1c-12.5 7.4-25.9 14.4-40 21.1C699 493 576.9 517 448 517s-251-24-344-67.6c-14.2-6.7-27.5-13.7-40-21.1v-77.1zM448 833c-128.9 0-251-24-344-67.6-14.2-6.7-27.5-13.7-40-21.1v-77.1c78.4 61 221 101.8 384 101.8 50.7 0 99.3-3.9 144.8-11.2-0.5 6-0.8 12.1-0.8 18.2 0 15.8 1.7 31.1 4.9 45.9-47.6 7.3-97.7 11.1-148.9 11.1z m180-176.4C571.3 667.4 510.4 673 448 673c-128.9 0-251-24-344-67.6-14.2-6.7-27.5-13.7-40-21.1v-77.1c78.4 61 221 101.8 384 101.8s305.6-40.8 384-101.8v54.1c-7.9-0.9-15.9-1.3-24-1.3-75.2 0-141.3 38.4-180 96.6z m287.5 226.9C886.8 912.2 848.6 928 808 928c-37.3 0-72.6-13.4-100.4-37.8-2.4-2.1-4.8-4.4-7.1-6.7-20.5-20.5-34.5-45.9-40.7-73.6-2.5-11-3.8-22.4-3.8-33.9 0-10.8 1.1-21.5 3.3-31.8 6-28.5 20.2-54.6 41.2-75.7C729.2 639.8 767.4 624 808 624c32 0 62.5 9.8 88 28 6.9 4.9 13.4 10.4 19.5 16.5C944.2 697.2 960 735.4 960 776s-15.8 78.8-44.5 107.5z" p-id="2656"></path></svg>